<?xml version="1.0" encoding="UTF-8"?>
<svg id="_2" data-name="2" xmlns="http://www.w3.org/2000/svg" viewBox="0 0 512 456.77">
  <defs>
    <style>
      .cls-1 {
        fill: #9acd32;
      }
    </style>
  </defs>
  <path class="cls-1" d="M363.43.79c-14.83-.99-70.25-5.25-113.2,24.3-32.89,22.64-53.1,44.72-53.1,44.72-5.93,6.48-7.55,10.19-13.33,12.65-13.5,5.76-29.99-4.52-65.12.95-47.06,7.33-75.31,32.43-76.35,80.53-.27,12.3,4.5,24.78,12.27,35.11C34.99,248.61,10.83,319.5.31,389.96c-2.59,14.55,12.01,10.33,15.64,1.58,4.74-11.36,30.82-98.9,67.38-170.69,9.34,3.35,24.39,7.81,34.65,7.44,24.35-.92,50.91-15.19,65.56-8.91,14.64,6.28,93.33,45.82,106.67,49.15,16.75,4.19,48.81,30.92,48.81,38.23s1.1,18.79,1.4,31.85c.28,11.83,7.73,20.84,20.12,25.77-1.71,9.38-6.42,30.09-15.94,41.18-12.54,14.64-56.48,18.82-56.48,33.46,0,13.52,33.85,5.64,39.06,4.37-1.5.51-4.72,2.54-1.4,10.27,6.28,14.65,43.93-27.19,43.93-27.19l18.75-58.32c11.27-1.21,21.64-5.89,27.27-14.91,10.45-16.71,14.5-26.49,23-41.82,10.46-18.83,71.12-56.41,73.22-142.24C514.04,83.41,457.56,7.06,363.43.79Z"/>
</svg>